<?xml version="1.0" encoding="UTF-8" standalone="no"?>
<!-- Created with Inkscape (http://www.inkscape.org/) -->

<svg
   xmlns:dc="http://purl.org/dc/elements/1.1/"
   xmlns:cc="http://creativecommons.org/ns#"
   xmlns:rdf="http://www.w3.org/1999/02/22-rdf-syntax-ns#"
   xmlns:svg="http://www.w3.org/2000/svg"
   xmlns="http://www.w3.org/2000/svg"
   xmlns:sodipodi="http://sodipodi.sourceforge.net/DTD/sodipodi-0.dtd"
   xmlns:inkscape="http://www.inkscape.org/namespaces/inkscape"
   width="406.39999mm"
   height="406.39999mm"
   viewBox="0 0 406.39999 406.39999"
   id="svg4180"
   version="1.1"
   inkscape:version="0.91+devel+osxmenu r12922"
   sodipodi:docname="softwarealchemy-icon.svg"
   inkscape:export-filename="/Users/iltasu/Git/grafica/taris_project/softwarealchemy/softwarealchemy-icon.png"
   inkscape:export-xdpi="96"
   inkscape:export-ydpi="96">
  <defs
     id="defs4182" />
  <sodipodi:namedview
     id="base"
     pagecolor="#ffffff"
     bordercolor="#666666"
     borderopacity="1.0"
     inkscape:pageopacity="0.0"
     inkscape:pageshadow="2"
     inkscape:zoom="0.39619632"
     inkscape:cx="765.77247"
     inkscape:cy="764.98116"
     inkscape:document-units="mm"
     inkscape:current-layer="layer1"
     showgrid="false"
     fit-margin-top="0"
     fit-margin-left="0"
     fit-margin-right="0"
     fit-margin-bottom="0"
     inkscape:window-width="1280"
     inkscape:window-height="730"
     inkscape:window-x="0"
     inkscape:window-y="23"
     inkscape:window-maximized="0" />
  <metadata
     id="metadata4185">
    <rdf:RDF>
      <cc:Work
         rdf:about="">
        <dc:format>image/svg+xml</dc:format>
        <dc:type
           rdf:resource="http://purl.org/dc/dcmitype/StillImage" />
        <dc:title></dc:title>
      </cc:Work>
    </rdf:RDF>
  </metadata>
  <g
     inkscape:label="Livello 1"
     inkscape:groupmode="layer"
     id="layer1"
     transform="translate(97.999,203.41291)">
    <path
       style="opacity:1;fill:#000000;fill-opacity:0.78431373;stroke:none;stroke-width:27.6479969;stroke-linecap:butt;stroke-linejoin:miter;stroke-miterlimit:4;stroke-dasharray:none;stroke-dashoffset:0;stroke-opacity:1"
       d="m 1077.1679,86.134946 c -33.6002,-18.487592 -74.1317,-1.675902 -91.15032,19.103334 -36.08294,44.05626 -27.21412,102.34382 15.15382,128.53711 -7.68277,13.63932 -103.9106,184.34527 -154.83351,257.17578 -71.78627,33.27015 -147.70609,59.49361 -220.80859,90.44336 -134.71886,54.03885 -271.97951,103.77752 -401.21289,169.98633 -87.81604,69.05096 -87.86978,224.84319 8.11132,286.88474 71.87879,51.5922 154.27969,86.0353 228.41407,133.9199 169.30898,96.7602 334.42676,201.5572 510.08008,286.6778 107.49652,28.2684 230.98212,-67.7317 219.83982,-180.5684 -8.7009,-113.3149 -34.2972,-224.3786 -46.834,-337.24607 l -43.2324,-294.22266 c 51.2638,-88.83845 102.5586,-177.65917 153.8555,-266.47851 45.7151,20.78703 86.9095,-3.57 106.8918,-38.19541 19.9823,-34.62541 9.2854,-85.19939 -10.2833,-97.28121 C 1321.216,226.3839 1114.2041,106.51311 1077.1679,86.134946 Z"
       transform="matrix(0.26458333,0,0,0.26458333,-97.999,-203.41291)"
       id="path4268"
       inkscape:connector-curvature="0"
       sodipodi:nodetypes="sscccccccccccsss" />
    <path
       style="opacity:1;fill:#000000;fill-opacity:0.78431373;stroke:none;stroke-width:27.64799881;stroke-linecap:butt;stroke-linejoin:miter;stroke-miterlimit:4;stroke-dasharray:none;stroke-dashoffset:0;stroke-opacity:1"
       d="M 1047.2461 87.662109 C 1044.9614 87.767654 1042.7052 88.008662 1040.4902 88.361328 C 1038.2753 88.713994 1036.1016 89.178423 1033.9805 89.732422 C 1031.8593 90.286421 1029.7922 90.929129 1027.7891 91.638672 C 1025.7859 92.348214 1023.8474 93.124062 1021.9863 93.943359 C 1018.2659 95.582918 1014.7112 97.38519 1011.3457 99.386719 C 1007.9802 101.38825 1004.8039 103.59002 1001.8359 106.0293 C 1000.352 107.24894 998.91958 108.52781 997.54297 109.87109 C 996.16636 111.21438 994.84594 112.62125 993.58203 114.09766 C 992.31812 115.57406 991.11072 117.11929 989.96484 118.73828 C 988.81896 120.35728 987.73346 122.04925 986.71094 123.82031 C 985.68824 125.59166 984.7578 127.37962 983.91211 129.18555 C 983.06642 130.99147 982.30671 132.81691 981.62695 134.66016 C 980.26745 138.34666 979.22896 142.11058 978.4668 145.96289 C 977.70464 149.8152 977.21819 153.75479 976.96484 157.79492 C 976.7115 161.83505 976.69049 165.97465 976.85742 170.22461 C 976.94145 172.34992 977.08363 174.54347 977.30859 176.77734 C 977.53356 179.01122 977.84151 181.28574 978.25586 183.57422 C 978.67021 185.86269 979.19157 188.16598 979.84375 190.45508 C 980.49593 192.74418 981.27833 195.0201 982.2168 197.25586 C 983.15526 199.49162 984.24829 201.68601 985.52148 203.81445 C 986.79468 205.9429 988.24792 208.00354 989.9043 209.9707 C 991.56067 211.93786 993.42176 213.81255 995.50977 215.56445 C 997.59777 217.31636 999.91239 218.94701 1002.4805 220.42969 L 1002.0293 220.16797 L 1016.7031 229.06445 L 858.8418 502.48828 C 657.68695 583.18078 266.35938 740.96094 266.35938 740.96094 L 264.79492 741.5918 L 263.33984 742.42969 C 260.48651 744.07233 257.56943 745.8386 254.61328 747.73633 C 251.65714 749.63406 248.6623 751.6629 245.65039 753.83008 C 242.63848 755.99726 239.61049 758.30293 236.58984 760.75391 C 233.5692 763.20489 230.55655 765.80164 227.57422 768.55078 C 224.59189 771.29992 221.63916 774.20202 218.74219 777.26367 C 215.84521 780.32532 213.00286 783.54703 210.23828 786.93555 C 207.4737 790.32407 204.78631 793.87963 202.20117 797.60938 C 199.61603 801.33912 197.13405 805.2428 194.77539 809.32812 C 191.90207 814.30486 189.31736 819.37595 187.01758 824.52148 C 184.71779 829.66702 182.70236 834.88794 180.96484 840.16211 C 179.22733 845.43628 177.76855 850.7643 176.58203 856.12695 C 175.39551 861.48961 174.48077 866.8859 173.83398 872.29688 C 173.1872 877.70785 172.80778 883.13359 172.68945 888.55273 C 172.57113 893.97188 172.71441 899.38432 173.11328 904.77148 C 173.51215 910.15864 174.16747 915.51897 175.07227 920.83398 C 175.97706 926.149 177.1318 931.41838 178.53125 936.62109 C 179.9307 941.82381 181.57419 946.96146 183.45703 952.01172 C 185.33987 957.06197 187.46145 962.02517 189.81641 966.88281 C 192.17136 971.74045 194.76037 976.49232 197.57617 981.11719 C 200.39198 985.74206 203.43383 990.23986 206.69922 994.5918 C 209.96461 998.94374 213.45255 1003.1486 217.15625 1007.1875 C 220.85995 1011.2264 224.77941 1015.0995 228.91016 1018.7852 C 233.0409 1022.4708 237.38317 1025.9695 241.92969 1029.2617 C 246.4762 1032.5539 251.22671 1035.6394 256.17773 1038.498 L 927.625 1426.1582 C 932.56294 1429.0091 937.59816 1431.5775 942.70898 1433.8691 C 947.81981 1436.1608 953.00628 1438.1747 958.25 1439.916 C 963.49372 1441.6573 968.79425 1443.1263 974.13086 1444.3262 C 979.46747 1445.526 984.84097 1446.4577 990.23047 1447.125 C 995.61997 1447.7923 1001.0253 1448.1962 1006.4277 1448.3398 C 1011.8301 1448.4834 1017.2282 1448.3673 1022.6035 1447.9961 C 1027.9788 1447.6249 1033.3305 1446.9982 1038.6387 1446.1211 C 1043.9468 1445.244 1049.211 1444.1163 1054.4121 1442.7422 C 1059.6132 1441.3681 1064.7507 1439.747 1069.8047 1437.8848 C 1074.8586 1436.0225 1079.8304 1433.9177 1084.6973 1431.5762 C 1089.5641 1429.2347 1094.3271 1426.6575 1098.9668 1423.8457 C 1103.6065 1421.0339 1108.1235 1417.9881 1112.4961 1414.7148 C 1116.8687 1411.4416 1121.0966 1407.9407 1125.1621 1404.2148 C 1129.2276 1400.489 1133.1292 1396.5387 1136.8477 1392.3691 C 1140.5661 1388.1996 1144.1023 1383.8094 1147.4336 1379.2051 C 1150.7649 1374.6007 1153.8927 1369.7822 1156.7969 1364.752 C 1159.4326 1360.1868 1161.7392 1355.6156 1163.7578 1351.0723 C 1165.7764 1346.529 1167.507 1342.0132 1168.9902 1337.5547 C 1170.4735 1333.0962 1171.7084 1328.6957 1172.7383 1324.3848 C 1173.7681 1320.0738 1174.5917 1315.8524 1175.25 1311.752 C 1175.9083 1307.6515 1176.401 1303.6729 1176.7695 1299.8457 C 1177.1381 1296.0185 1177.3823 1292.3426 1177.543 1288.8516 C 1177.8643 1281.8695 1177.853 1275.6218 1177.834 1270.3613 L 1177.834 1268.6387 L 1086.0078 644.02148 L 1248.373 362.79883 C 1254.2787 366.01124 1255.4079 366.46157 1262.748 370.69336 L 1262.9453 370.80664 C 1265.5137 372.28948 1268.085 373.47976 1270.6465 374.41211 C 1273.208 375.34446 1275.7608 376.0179 1278.293 376.46875 C 1280.8251 376.9196 1283.3362 377.14721 1285.8164 377.18555 C 1288.2966 377.22388 1290.7447 377.07278 1293.1504 376.76758 C 1295.5561 376.46238 1297.9199 376.00358 1300.2285 375.42383 C 1302.5371 374.84408 1304.7915 374.14469 1306.9805 373.35938 C 1309.1694 372.57406 1311.2931 371.70314 1313.3398 370.78125 C 1315.3866 369.85936 1317.3563 368.88597 1319.2383 367.89648 C 1321.6795 366.61059 1324.0093 365.25381 1326.2559 363.83984 C 1328.5024 362.42588 1330.6652 360.95543 1332.7734 359.44141 L 1337.7188 358.12109 L 1335.8945 357.06836 C 1337.7428 355.61643 1339.5268 354.10878 1341.2383 352.5332 C 1342.9497 350.95762 1344.5884 349.31502 1346.1484 347.58984 C 1347.7085 345.86467 1349.1898 344.05696 1350.584 342.15625 C 1351.9781 340.25554 1353.2843 338.2604 1354.498 336.1582 C 1355.5202 334.3877 1356.4444 332.60226 1357.2734 330.80078 C 1358.1025 328.9993 1358.8376 327.18217 1359.4844 325.34961 C 1360.1311 323.51705 1360.6889 321.66841 1361.1641 319.80469 C 1361.6393 317.94097 1362.0313 316.06295 1362.3457 314.16797 C 1362.9746 310.37801 1363.2933 306.52491 1363.3438 302.60938 C 1363.3942 298.69384 1363.1761 294.71566 1362.7344 290.67383 C 1362.5139 288.65281 1362.2188 286.58546 1361.832 284.49609 C 1361.4452 282.40673 1360.9674 280.29554 1360.3867 278.18164 C 1359.806 276.06774 1359.1206 273.95205 1358.3184 271.85742 C 1357.5162 269.76279 1356.5981 267.6878 1355.5469 265.65625 C 1354.4956 263.6247 1353.3122 261.6356 1351.9844 259.71094 C 1350.6566 257.78628 1349.1827 255.92631 1347.5508 254.15234 C 1345.9188 252.37838 1344.1277 250.69079 1342.1641 249.11133 C 1340.2004 247.53187 1338.0651 246.06185 1335.7422 244.7207 L 1075.2754 94.341797 C 1075.2754 94.341797 1075.2734 94.339844 1075.2734 94.339844 C 1072.9518 92.999615 1070.6101 91.884857 1068.2617 90.974609 C 1065.9126 90.064056 1063.5569 89.358096 1061.2051 88.832031 C 1058.8533 88.305966 1056.5061 87.960803 1054.1758 87.773438 C 1051.8455 87.586072 1049.5308 87.556565 1047.2461 87.662109 z M 1051.0938 136.22266 L 1311.5645 286.60547 C 1311.459 286.54462 1312.0507 287.20232 1312.7598 288.71094 C 1313.1143 289.46525 1313.4971 290.43245 1313.8379 291.62891 C 1314.1787 292.82536 1314.4779 294.25205 1314.6602 295.92383 C 1314.8427 297.59506 1314.8284 299.39546 1314.6992 301.16602 C 1314.5701 302.93658 1314.3253 304.67743 1314.0469 306.22852 C 1313.49 309.3307 1312.797 311.67482 1312.6172 311.98633 C 1312.4386 312.29563 1310.335 314.58903 1307.3418 317.29688 C 1305.8452 318.6508 1304.1266 320.10798 1302.3145 321.47266 C 1300.5023 322.83734 1298.5973 324.10894 1296.7285 325.0918 C 1294.8663 326.07103 1293.2021 326.72216 1291.7871 327.16797 C 1290.3721 327.61378 1289.2052 327.85559 1288.3379 328.01172 C 1287.4706 328.16785 1286.9027 328.23941 1286.6836 328.34961 C 1286.4645 328.45981 1286.5954 328.608 1287.125 328.91602 C 1279.4648 324.49342 1272.6112 320.68289 1267.0469 317.65039 C 1261.4826 314.61789 1257.2074 312.36318 1254.7031 311.04883 L 1254.9707 310.58398 L 1037.6973 185.14062 L 1037.6582 185.20898 L 1026.8906 178.67773 L 1026.6621 178.54688 C 1027.2067 178.8613 1027.4066 178.90635 1027.3965 178.66602 C 1027.3863 178.42568 1027.165 177.89967 1026.8652 177.07031 C 1026.5655 176.24095 1026.1876 175.1089 1025.8633 173.65625 C 1025.539 172.2036 1025.2693 170.43053 1025.1855 168.32031 C 1025.1034 166.21107 1025.2531 163.92529 1025.5293 161.67383 C 1025.8055 159.42236 1026.2085 157.20562 1026.6328 155.23242 C 1027.4814 151.28602 1028.4165 148.31625 1028.5957 148.00586 C 1028.7743 147.69658 1030.4555 145.92419 1032.8633 143.89062 C 1034.0672 142.87384 1035.4527 141.79253 1036.9219 140.79492 C 1038.3911 139.79731 1039.9446 138.88336 1041.4844 138.20508 C 1043.0227 137.52815 1044.4052 137.07396 1045.6113 136.77148 C 1046.8175 136.46901 1047.8475 136.318 1048.6777 136.24805 C 1050.3381 136.10814 1051.2022 136.29194 1051.0957 136.23047 L 1051.0938 136.22266 z M 1058.6699 253.08984 L 1206.5762 338.48438 L 1109.4414 506.72656 L 1109.3418 506.66992 L 1041.416 624.32422 L 1041.4414 624.51172 L 1035.7207 634.42188 L 1129.4531 1272.0586 C 1129.4631 1277.0979 1129.4204 1282.4084 1129.1348 1287.9141 C 1128.9919 1290.6669 1128.7876 1293.4687 1128.5 1296.3086 C 1128.2124 1299.1485 1127.841 1302.0283 1127.3613 1304.9355 C 1126.8816 1307.8428 1126.2952 1310.7775 1125.5762 1313.7324 C 1124.8572 1316.6874 1124.0056 1319.6616 1123 1322.6445 C 1121.9944 1325.6275 1120.8335 1328.6201 1119.4941 1331.6113 C 1118.1548 1334.6026 1116.6384 1337.5924 1114.918 1340.5723 C 1112.8428 1344.1665 1110.6083 1347.6091 1108.2305 1350.8965 C 1105.8526 1354.1839 1103.3298 1357.3164 1100.6777 1360.291 C 1098.0256 1363.2656 1095.2437 1366.0824 1092.3457 1368.7383 C 1089.4477 1371.3942 1086.4338 1373.8894 1083.3184 1376.2207 C 1080.2029 1378.552 1076.9861 1380.7199 1073.6816 1382.7207 C 1070.3772 1384.7215 1066.9866 1386.5544 1063.5215 1388.2188 C 1060.0564 1389.8831 1056.5172 1391.3772 1052.9199 1392.6992 C 1049.3226 1394.0212 1045.6659 1395.1708 1041.9648 1396.1445 C 1038.2638 1397.1182 1034.5186 1397.9176 1030.7422 1398.5371 C 1026.9657 1399.1566 1023.1594 1399.5961 1019.3359 1399.8555 C 1015.5125 1400.1148 1011.6721 1400.1926 1007.8301 1400.0859 C 1003.9881 1399.9792 1000.1446 1399.6896 996.3125 1399.2109 C 992.48038 1398.7323 988.65907 1398.0655 984.86523 1397.209 C 981.07139 1396.3524 977.30332 1395.3048 973.57617 1394.0645 C 969.84902 1392.8241 966.1633 1391.3918 962.53125 1389.7617 C 958.8992 1388.1317 955.32103 1386.305 951.8125 1384.2793 L 280.36719 996.61914 C 276.87217 994.60086 273.5152 992.41736 270.30273 990.08398 C 267.09027 987.75061 264.02114 985.26741 261.09961 982.64844 C 258.17808 980.02947 255.40347 977.27544 252.78125 974.40039 C 250.15903 971.52534 247.68953 968.52936 245.375 965.42773 C 243.06047 962.32611 240.90274 959.119 238.9043 955.82031 C 236.90585 952.52162 235.06657 949.13226 233.39258 945.66602 C 231.71859 942.19977 230.20833 938.65703 228.86719 935.05273 C 227.52604 931.44844 226.35344 927.7812 225.35352 924.06836 C 224.35359 920.35552 223.52727 916.59656 222.87695 912.80469 C 222.22664 909.01282 221.75327 905.18905 221.46094 901.34766 C 221.16861 897.50626 221.05682 893.64657 221.13086 889.78516 C 221.2049 885.92374 221.46527 882.06091 221.91406 878.20898 C 222.36285 874.35706 223.0001 870.51605 223.83203 866.70312 C 224.66396 862.8902 225.69062 859.10379 226.91406 855.35938 C 228.13751 851.61496 229.5583 847.91398 231.18164 844.26758 C 232.80498 840.62118 234.63049 837.03059 236.66211 833.51172 C 238.96335 829.52587 241.45614 825.76318 244.0957 822.21094 C 246.73526 818.6587 249.52202 815.31606 252.4082 812.16992 L 252.42188 812.42969 C 255.51434 809.02465 258.69832 805.89648 261.91992 803.01758 C 265.14152 800.13867 268.40065 797.50843 271.64258 795.09961 L 270.93945 795.41797 C 273.53518 793.45031 276.13836 791.59382 278.72461 789.85938 C 281.31086 788.12493 283.88126 786.51307 286.41016 785.03125 C 289.01221 783.98149 686.73129 623.62164 884.61133 544.25391 L 892.36914 541.14258 L 893.86328 538.55469 C 893.95399 538.51689 894.13459 538.44713 894.22266 538.4082 L 961.74609 421.45508 L 961.53906 421.33594 L 1058.6738 253.09375 L 1058.6699 253.08984 z "
       id="path4264"
       transform="matrix(0.26458333,0,0,0.26458333,-97.999,-203.41291)" />
    <path
       d="m 186.50131,-178.45183 c -4.91571,-2.83809 -10.1602,-1.83934 -14.09938,-0.10516 -3.93742,1.73521 -7.16874,4.15638 -9.33308,7.90512 -2.16469,3.74934 -2.78392,7.7798 -2.60725,12.27767 0.17784,4.49856 1.3439,10.14482 6.77964,13.28315 l -0.11977,-0.0692 3.88277,2.35398 -41.76749,72.343407 C 76.014538,-49.112977 -27.524101,-7.3668385 -27.524101,-7.3668385 l -0.413993,0.1665609 -0.385115,0.2219937 c -6.03955,3.4769169 -13.148716,9.0528346 -18.141216,17.7001109 -12.163726,21.068178 -4.712853,48.532907 16.246483,60.634565 L 147.43554,173.92469 c 20.90394,12.0689 48.34042,5.04763 60.63492,-16.24707 5.57896,-9.66303 5.58616,-19.4065 5.56601,-24.97384 l -8.5e-4,-0.4559 -24.29537,-165.263286 42.95888,-74.406944 c 1.56254,0.84995 1.86153,0.96882 3.80361,2.0885 l 0.0522,0.0301 c 5.43634,3.13868 10.91044,1.32454 14.89397,-0.76988 1.2918,-0.68044 2.48662,-1.40776 3.58133,-2.23726 1.55583,-1.1789 4.22952,-3.57988 5.74819,-6.15998 2.16366,-3.74756 2.64666,-7.75706 2.17914,-12.03465 -0.46656,-4.27784 -2.22504,-9.31976 -7.14193,-12.15853 l -68.91493,-39.78816 z m -6.39785,11.0814 68.91603,39.7887 c -0.0558,-0.0322 0.62605,0.69588 0.81894,2.46519 0.19324,1.76871 -0.4452,4.08507 -0.54038,4.24992 -0.0945,0.16366 -2.22614,2.42752 -4.20398,3.46773 -1.97086,1.03634 -3.10138,0.68565 -2.54086,1.01164 -4.05354,-2.34031 -7.25305,-4.03179 -8.57821,-4.7273 l 0.0709,-0.12274 -57.48716,-33.19024 -0.0103,0.0178 -2.84885,-1.7278 -0.0605,-0.0349 c 0.57636,0.33277 -0.30202,-0.47244 -0.39069,-2.70575 -0.0869,-2.23228 0.80726,-5.21062 0.90209,-5.37487 0.0945,-0.16366 1.7807,-1.87509 3.41035,-2.59295 1.62802,-0.71641 2.59944,-0.49 2.54311,-0.52253 z m 2.00428,30.92106 39.13357,22.59378 -25.70027,44.514192 -0.0261,-0.01504 -17.97239,31.129095 0.007,0.04984 -1.51388,2.622113 24.80029,168.70782 c 0.0106,5.33333 -0.20457,11.82033 -3.84616,18.12774 -8.78471,15.21558 -28.30177,20.13941 -43.15453,11.56394 L -23.818326,60.275979 c -14.795561,-8.544055 -20.164059,-28.259094 -11.563523,-43.15566 1.217745,-2.109193 2.638766,-3.981635 4.166044,-5.646459 l 0.0038,0.06867 c 1.636429,-1.8018404 3.369977,-3.3104265 5.085504,-4.5851039 l -0.186024,0.083946 c 1.373579,-1.0412153 2.754794,-1.9641684 4.09301,-2.7482984 C -21.531057,4.0153278 83.698891,-38.413056 136.05465,-59.412437 l 2.05255,-0.823143 0.39541,-0.684882 c 0.024,-0.0097 0.0717,-0.02827 0.0949,-0.03853 l 17.86557,-30.94409 -0.0547,-0.03155 25.70028,-44.514188 z m -19.60057,60.566854 -15.03167,25.135332 -2.04855,0.823088 c -35.11518,14.128725 -160.679863,65.255307 -161.591435,65.626362 -2.849806,1.676887 -5.973877,4.212149 -8.071457,7.845264 -5.206472,9.017876 -1.947465,20.997329 6.963676,26.142179 L 160.02249,152.0509 c 8.96807,5.17771 20.78301,2.20639 26.12163,-7.04036 2.14928,-3.72266 2.30371,-7.58346 2.30201,-11.11221 l -24.18294,-174.720702 20.16892,-34.933587 z m -38.35375,59.987027 c 12.46124,7.1945033 16.7803,23.315333 9.58614,35.775976 C 126.54438,32.342926 110.4238,36.662921 97.962588,29.468548 85.501337,22.274041 81.181096,6.1525215 88.375531,-6.3081943 95.57038,-18.770038 111.69248,-23.089942 124.15373,-15.895439 Z m -6.39854,11.082587 C 111.28381,-8.5489767 103.19456,-6.3819634 99.458908,0.08878056 95.722154,6.5610447 97.890343,14.650971 104.36109,18.386631 c 6.47166,3.736416 14.56056,1.569997 18.29766,-4.902854 3.73642,-6.4716584 1.56824,-14.5615843 -4.90284,-18.2976521 z M 63.236355,7.0505207 C 75.6976,14.245024 80.017511,30.367132 72.823004,42.828384 65.628164,55.290213 49.506396,59.609522 37.045147,52.415026 24.583907,45.220516 20.264344,29.097821 27.458851,16.636569 34.653354,4.1753236 50.775456,-0.14458081 63.236697,7.0499295 Z M 116.86422,46.480178 c 14.62498,8.443746 19.68495,27.333379 11.24182,41.9577 C 119.66197,103.06346 100.77386,108.12351 86.149466,99.680114 71.525081,91.236702 66.462318,72.347826 74.906327,57.722768 83.349724,43.098374 102.24037,38.036634 116.86477,46.480032 Z M 56.837817,18.133115 c -6.47107,-3.736075 -14.560989,-1.567882 -18.296718,4.902591 -3.736427,6.471665 -1.568227,14.561588 4.902245,18.297317 6.471662,3.736416 14.560894,1.569413 18.297651,-4.902841 3.736081,-6.471067 1.567893,-14.560993 -4.903178,-18.297067 z m 53.627873,39.42966 c -8.63482,-4.985307 -19.492015,-2.076141 -24.477329,6.558676 -4.985656,8.635409 -2.076131,19.492016 6.55869,24.477324 8.635999,4.985997 19.490979,2.077914 24.477309,-6.558681 4.98531,-8.634817 2.07673,-19.49166 -6.55867,-24.477319 z"
       id="path8571"
       style="opacity:1;fill:#ff6600;fill-opacity:1;stroke-width:0.68470168;stroke-linecap:butt;stroke-linejoin:miter;stroke-miterlimit:4;stroke-dasharray:none;stroke-dashoffset:0;stroke-opacity:1"
       inkscape:connector-curvature="0"
       sodipodi:nodetypes="ccsccccccccscsscccccscsccscccccccccccccccccccccccccccsscscccccccccccccccccsssscccccssscccccscccssscccsssccssssssssss" />
    <path
       d="m 186.50087,-178.45185 c -8.99938,-5.02119 -19.48166,0.6912 -23.7186,7.79996 -4.40058,8.53099 -4.21136,20.6176 4.45855,25.56082 0.56511,0.3222 2.73787,1.6633 3.76299,2.28479 l -41.76749,72.343393 C 76.014103,-49.112997 -27.524534,-7.3668599 -27.524534,-7.3668599 l -0.413996,0.16656 -0.385112,0.221996 c -6.039559,3.476919 -13.148723,9.0528378 -18.141219,17.7001089 -12.163731,21.068184 -4.712853,48.532908 16.246479,60.634571 L 147.4351,173.92468 c 20.90395,12.06889 48.34042,5.04765 60.63492,-16.24708 5.57894,-9.66301 5.58617,-19.4065 5.566,-24.97384 l 0,-0.4559 -24.29536,-165.263297 42.95886,-74.406933 c 1.56255,0.84995 1.86156,0.96883 3.80362,2.0885 l 0.0522,0.0301 c 6.80472,3.92379 16.95277,1.56821 24.2235,-9.16712 2.42659,-3.5829 2.64665,-7.75705 2.17913,-12.03465 -0.46656,-4.27784 -2.22504,-9.31976 -7.14192,-12.15852 l -68.91576,-39.78816 z m -6.39785,11.0814 68.91605,39.78871 c 1.54523,9.27878 -6.60383,10.77787 -6.46631,11.19447 -22.70478,-12.84157 -46.37844,-26.72071 -65.99448,-38.04028 l -0.0103,0.0178 -2.84885,-1.72781 -0.0605,-0.0349 c -1.57588,-5.30852 1.12764,-11.35547 6.46487,-11.1961 z m 2.00429,30.92107 39.13355,22.59378 -25.70026,44.514173 -0.026,-0.015 -17.97239,31.12909 0.007,0.0498 -1.51388,2.62211 24.80029,168.707837 c 0.0106,5.33331 -0.20457,11.82031 -3.84615,18.12774 -8.78472,15.21558 -28.30177,20.13942 -43.15454,11.56393 L -23.818751,60.275954 C -38.614312,51.731899 -43.982815,32.016856 -35.382279,17.12029 c 1.217739,-2.109187 2.638768,-3.981635 4.166041,-5.646462 l 0.0038,0.06867 c 1.636425,-1.8018341 3.369979,-3.3104241 5.085499,-4.5850971 l -0.186016,0.08394 c 1.373579,-1.041215 2.754794,-1.964169 4.093007,-2.748291 0.688459,-0.277754 105.918411,-42.7061369 158.274168,-63.7055169 l 2.05255,-0.82315 0.39541,-0.68488 c 0.024,-0.01 0.0716,-0.0282 0.0949,-0.0385 l 17.86558,-30.94409 -0.0546,-0.0315 25.70029,-44.514183 z"
       id="path8571-4-4"
       style="opacity:1;fill:#ffffff;fill-opacity:1;stroke:none;stroke-width:2.28500009;stroke-linecap:butt;stroke-linejoin:miter;stroke-miterlimit:4;stroke-dasharray:none;stroke-dashoffset:0;stroke-opacity:0.78431373"
       inkscape:connector-curvature="0"
       sodipodi:nodetypes="ccscccccscsscccccsscscccccccccccccccccccsscsccccccccccccc" />
  </g>
</svg>
